<svg width="16" height="16" viewBox="0 0 16 16" fill="none" xmlns="http://www.w3.org/2000/svg">
<path fill-rule="evenodd" clip-rule="evenodd" d="M7.9987 1C11.1264 1 13.6654 3.539 13.6654 6.66667C13.6654 8.147 12.8587 9.801 11.836 11.2307C10.4237 13.2047 8.65803 14.752 8.65803 14.752C8.2807 15.0827 7.7167 15.0827 7.33937 14.752C6.96203 14.4213 5.5737 13.2047 4.16137 11.2307C3.1387 9.801 2.33203 8.147 2.33203 6.66667C2.33203 3.539 4.87103 1 7.9987 1ZM7.9987 4.33333C6.71103 4.33333 5.66536 5.379 5.66536 6.66667C5.66536 7.95433 6.71103 9 7.9987 9C9.28636 9 10.332 7.95433 10.332 6.66667C10.332 5.379 9.28636 4.33333 7.9987 4.33333Z" fill="#B3B1AD"/>
</svg>
