<svg width="24" height="24" viewBox="0 0 24 24" fill="none" xmlns="http://www.w3.org/2000/svg">
<g clip-path="url(#clip0_715_15662)">
<path d="M16.3825 0.613281C16.4355 0.613281 16.4885 0.613281 16.5445 0.613281C16.6745 2.21928 16.0615 3.41928 15.3165 4.28828C14.5855 5.15128 13.5845 5.98828 11.9655 5.86128C11.8575 4.27828 12.4715 3.16728 13.2155 2.30028C13.9055 1.49228 15.1705 0.773281 16.3825 0.613281Z" fill="#464749"/>
<path d="M21.2833 17.3295C21.2833 17.3455 21.2833 17.3595 21.2833 17.3745C20.8283 18.7525 20.1793 19.9335 19.3873 21.0295C18.6643 22.0245 17.7783 23.3635 16.1963 23.3635C14.8293 23.3635 13.9213 22.4845 12.5203 22.4605C11.0383 22.4365 10.2233 23.1955 8.86829 23.3865C8.71328 23.3865 8.55829 23.3865 8.40629 23.3865C7.41129 23.2425 6.60828 22.4545 6.02328 21.7445C4.29828 19.6465 2.96529 16.9365 2.71729 13.4685C2.71729 13.1285 2.71729 12.7895 2.71729 12.4495C2.82229 9.96748 4.02829 7.94948 5.63129 6.97148C6.47729 6.45148 7.64028 6.00848 8.93528 6.20648C9.49028 6.29248 10.0573 6.48248 10.5543 6.67048C11.0253 6.85148 11.6143 7.17248 12.1723 7.15548C12.5503 7.14448 12.9263 6.94748 13.3073 6.80848C14.4233 6.40548 15.5173 5.94348 16.9593 6.16048C18.6923 6.42248 19.9223 7.19248 20.6823 8.38048C19.2163 9.31348 18.0573 10.7195 18.2553 13.1205C18.4313 15.3015 19.6993 16.5775 21.2833 17.3295Z" fill="#464749"/>
</g>
<defs>
<clipPath id="clip0_715_15662">
<rect width="22.773" height="22.773" fill="white" transform="translate(0.613281 0.613281)"/>
</clipPath>
</defs>
</svg>
