<svg width="24" height="24" viewBox="0 0 24 24" fill="none" xmlns="http://www.w3.org/2000/svg">
<path d="M21 22H3C2.59 22 2.25 21.66 2.25 21.25C2.25 20.84 2.59 20.5 3 20.5H21C21.41 20.5 21.75 20.84 21.75 21.25C21.75 21.66 21.41 22 21 22Z" fill="url(#paint0_linear_481_14199)"/>
<path d="M19.0186 3.47997C17.0786 1.53997 15.1786 1.48997 13.1886 3.47997L11.9786 4.68997C11.8786 4.78997 11.8386 4.94997 11.8786 5.08997C12.6386 7.73997 14.7586 9.85997 17.4086 10.62C17.4486 10.63 17.4886 10.64 17.5286 10.64C17.6386 10.64 17.7386 10.6 17.8186 10.52L19.0186 9.30997C20.0086 8.32997 20.4886 7.37997 20.4886 6.41997C20.4986 5.42997 20.0186 4.46997 19.0186 3.47997Z" fill="url(#paint1_linear_481_14199)"/>
<path d="M15.6084 11.53C15.3184 11.39 15.0384 11.25 14.7684 11.09C14.5484 10.96 14.3384 10.82 14.1284 10.67C13.9584 10.56 13.7584 10.4 13.5684 10.24C13.5484 10.23 13.4784 10.17 13.3984 10.09C13.0684 9.80999 12.6984 9.44999 12.3684 9.04999C12.3384 9.02999 12.2884 8.95999 12.2184 8.86999C12.1184 8.74999 11.9484 8.54999 11.7984 8.31999C11.6784 8.16999 11.5384 7.94999 11.4084 7.72999C11.2484 7.45999 11.1084 7.18999 10.9684 6.90999C10.9472 6.86459 10.9267 6.81943 10.9068 6.77452C10.7592 6.44121 10.3246 6.34376 10.0668 6.60152L4.33837 12.33C4.20837 12.46 4.08837 12.71 4.05837 12.88L3.51837 16.71C3.41837 17.39 3.60837 18.03 4.02837 18.46C4.38837 18.81 4.88837 19 5.42837 19C5.54837 19 5.66837 18.99 5.78837 18.97L9.62837 18.43C9.80837 18.4 10.0584 18.28 10.1784 18.15L15.8997 12.4287C16.1592 12.1691 16.0613 11.7237 15.7237 11.5796C15.6857 11.5634 15.6473 11.5469 15.6084 11.53Z" fill="url(#paint2_linear_481_14199)"/>
<defs>
<linearGradient id="paint0_linear_481_14199" x1="12.0018" y1="20.5" x2="12.0018" y2="22" gradientUnits="userSpaceOnUse">
<stop stop-color="#FFBEFF"/>
<stop offset="1" stop-color="#F01799"/>
</linearGradient>
<linearGradient id="paint1_linear_481_14199" x1="16.1768" y1="2.00616" x2="16.1768" y2="10.64" gradientUnits="userSpaceOnUse">
<stop stop-color="#FFBEFF"/>
<stop offset="1" stop-color="#F01799"/>
</linearGradient>
<linearGradient id="paint2_linear_481_14199" x1="9.97645" y1="6.04999" x2="9.97645" y2="19" gradientUnits="userSpaceOnUse">
<stop stop-color="#FFBEFF"/>
<stop offset="1" stop-color="#F01799"/>
</linearGradient>
</defs>
</svg>
