<svg width="25" height="25" viewBox="0 0 25 25" fill="none" xmlns="http://www.w3.org/2000/svg">
<path opacity="0.4" d="M21.7069 8.51002L15.1569 3.27002C13.8769 2.25002 11.8769 2.24002 10.6069 3.26002L4.05692 8.51002C3.11692 9.26002 2.54692 10.76 2.74692 11.94L4.00692 19.48C4.29692 21.17 5.86692 22.5 7.57692 22.5H18.1769C19.8669 22.5 21.4669 21.14 21.7569 19.47L23.0169 11.93C23.1969 10.76 22.6269 9.26002 21.7069 8.51002Z" fill="#6A6C70"/>
<path d="M12.875 19.25C12.465 19.25 12.125 18.91 12.125 18.5V15.5C12.125 15.09 12.465 14.75 12.875 14.75C13.285 14.75 13.625 15.09 13.625 15.5V18.5C13.625 18.91 13.285 19.25 12.875 19.25Z" fill="#6A6C70"/>
</svg>
