<svg width="24" height="24" viewBox="0 0 24 24" fill="none" xmlns="http://www.w3.org/2000/svg">
<path opacity="0.4" d="M9 7.2V16.79C9 20 11 22 14.2 22H16.79C19.99 22 21.99 20 21.99 16.8V7.2C22 4 20 2 16.8 2H14.2C11 2 9 4 9 7.2Z" fill="url(#paint0_linear_461_13112)"/>
<path d="M5.57141 8.12002L2.22141 11.47C1.93141 11.76 1.93141 12.24 2.22141 12.53L5.57141 15.88C5.86141 16.17 6.34141 16.17 6.63141 15.88C6.92141 15.59 6.92141 15.11 6.63141 14.82L4.56141 12.75H15.2514C15.6614 12.75 16.0014 12.41 16.0014 12C16.0014 11.59 15.6614 11.25 15.2514 11.25H4.56141L6.63141 9.18002C6.78141 9.03002 6.85141 8.84002 6.85141 8.65002C6.85141 8.46002 6.78141 8.26002 6.63141 8.12002C6.34141 7.82002 5.87141 7.82002 5.57141 8.12002Z" fill="url(#paint1_linear_461_13112)"/>
<defs>
<linearGradient id="paint0_linear_461_13112" x1="15.4962" y1="2" x2="15.4962" y2="22" gradientUnits="userSpaceOnUse">
<stop stop-color="#FFBEFF"/>
<stop offset="1" stop-color="#F01799"/>
</linearGradient>
<linearGradient id="paint1_linear_461_13112" x1="9.00392" y1="7.89502" x2="9.00392" y2="16.0975" gradientUnits="userSpaceOnUse">
<stop stop-color="#FFBEFF"/>
<stop offset="1" stop-color="#F01799"/>
</linearGradient>
</defs>
</svg>
