<svg width="51" height="50" viewBox="0 0 51 50" fill="none" xmlns="http://www.w3.org/2000/svg">
<path d="M32.7059 25.6731C31.5454 25.6731 30.6027 24.7353 30.6027 23.5806V12.4723C30.6027 7.97149 26.9222 4.30956 22.3985 4.30956H20.2504C15.7267 4.30956 12.0462 7.97149 12.0462 12.4723V23.5806C12.0462 24.7353 11.1059 25.6731 9.943 25.6731C8.78248 25.6731 7.83984 24.7353 7.83984 23.5806V12.4723C7.83984 5.66452 13.408 0.124512 20.2504 0.124512H22.3985C29.2409 0.124512 34.8091 5.66217 34.8091 12.4723V23.5806C34.8091 24.7353 33.8664 25.6731 32.7059 25.6731Z" fill="#4D4D4D"/>
<path d="M22.3986 0.124512H21.3257V4.30956H22.3986C26.9223 4.30956 30.6028 7.97149 30.6028 12.4723V23.5806C30.6028 24.7353 31.5454 25.6731 32.7059 25.6731C33.8688 25.6731 34.8091 24.7353 34.8091 23.5806V12.4723C34.8091 5.66217 29.2409 0.124512 22.3986 0.124512Z" fill="#404040"/>
<path d="M39.6527 45.5382C39.6527 47.52 38.0374 49.1247 36.048 49.1247H6.60376C4.61191 49.1247 2.99902 47.5176 2.99902 45.5382V20.9981C2.99902 19.0164 4.61428 17.4116 6.60376 17.4116H36.0456C38.0374 17.4116 39.6503 19.0187 39.6503 20.9981V45.5382H39.6527Z" fill="#FFB000"/>
<path d="M36.0458 17.4092H21.3237V49.1246H36.0458C38.0377 49.1246 39.6506 47.5175 39.6506 45.5381V20.9981C39.6529 19.0163 38.0377 17.4092 36.0458 17.4092Z" fill="#FFA200"/>
<path d="M36.2476 37.9545C36.2476 38.7963 35.563 39.4775 34.7169 39.4775H7.8466C7.00056 39.4775 6.31592 38.7963 6.31592 37.9545V29.6094C6.31592 28.7676 7.00056 28.0864 7.8466 28.0864H34.7169C35.563 28.0864 36.2476 28.7676 36.2476 29.6094V37.9545Z" fill="#4D4D4D"/>
<path d="M34.7169 28.0864H21.2817V39.4775H34.7169C35.5629 39.4775 36.2476 38.7963 36.2476 37.9545V29.6094C36.2476 28.7676 35.5629 28.0864 34.7169 28.0864Z" fill="#404040"/>
<path d="M11.7611 33.9913L11.3915 33.7789L11.7611 33.5665C11.9668 33.4474 12.0397 33.1832 11.9199 32.9785C11.8002 32.7713 11.5347 32.7014 11.329 32.8206L10.9594 33.0329V32.6108C10.9594 32.3725 10.7641 32.1782 10.5246 32.1782C10.2851 32.1782 10.0899 32.3725 10.0899 32.6108V33.0329L9.72023 32.8206C9.51197 32.7014 9.24905 32.7713 9.1267 32.9785C9.00695 33.1858 9.07724 33.4474 9.28549 33.5665L9.65515 33.7789L9.28549 33.9913C9.07724 34.1104 9.00695 34.3746 9.1267 34.5792C9.24644 34.7864 9.51197 34.8563 9.71763 34.7372L10.0873 34.5248V34.9496C10.0873 35.1879 10.2825 35.3821 10.522 35.3821C10.7615 35.3821 10.9568 35.1879 10.9568 34.9496V34.5248L11.3264 34.7372C11.5347 34.8563 11.7976 34.7864 11.9173 34.5792C12.0397 34.3746 11.9694 34.1104 11.7611 33.9913Z" fill="white"/>
<path d="M17.1392 33.9913L16.7696 33.7789L17.1392 33.5665C17.3475 33.4474 17.4178 33.1832 17.298 32.9785C17.1783 32.7713 16.9128 32.7014 16.7071 32.8206L16.3375 33.0329V32.6108C16.3375 32.3725 16.1422 32.1782 15.9053 32.1782C15.6658 32.1782 15.4706 32.3725 15.4706 32.6108V33.0329L15.1009 32.8206C14.8927 32.7014 14.6297 32.7713 14.51 32.9785C14.3902 33.1858 14.4605 33.4474 14.6688 33.5665L15.0384 33.7789L14.6688 33.9913C14.4605 34.1104 14.3902 34.3746 14.51 34.5792C14.6297 34.7864 14.8953 34.8563 15.1009 34.7372L15.4706 34.5248V34.9496C15.4706 35.1879 15.6658 35.3821 15.9053 35.3821C16.1448 35.3821 16.3375 35.1879 16.3375 34.9496V34.5248L16.7071 34.7372C16.9154 34.8563 17.1783 34.7864 17.298 34.5792C17.4178 34.3746 17.3475 34.1104 17.1392 33.9913Z" fill="white"/>
<path d="M22.5154 33.9913L22.1457 33.7789L22.5154 33.5665C22.721 33.4474 22.7939 33.1832 22.6742 32.9785C22.5544 32.7713 22.2889 32.7014 22.0832 32.8206L21.7136 33.0329V32.6108C21.7136 32.3725 21.5183 32.1782 21.2789 32.1782C21.0394 32.1782 20.8441 32.3725 20.8441 32.6108V33.0329L20.4745 32.8206C20.2688 32.7014 20.0033 32.7713 19.8835 32.9785C19.7638 33.1858 19.8341 33.4474 20.0423 33.5665L20.412 33.7789L20.0423 33.9913C19.8341 34.1104 19.7638 34.3746 19.8835 34.5792C20.0033 34.7864 20.2688 34.8563 20.4745 34.7372L20.8441 34.5248V34.9496C20.8441 35.1879 21.0394 35.3821 21.2789 35.3821C21.5183 35.3821 21.7136 35.1879 21.7136 34.9496V34.5248L22.0806 34.7372C22.2889 34.8563 22.5544 34.7864 22.6716 34.5792C22.7939 34.3746 22.7236 34.1104 22.5154 33.9913Z" fill="white"/>
<path d="M27.8938 33.9913L27.5241 33.7789L27.8938 33.5665C28.1021 33.4474 28.1723 33.1832 28.0526 32.9785C27.9328 32.7713 27.6673 32.7014 27.4617 32.8206L27.092 33.0329V32.6108C27.092 32.3725 26.8968 32.1782 26.6573 32.1782C26.4178 32.1782 26.2225 32.3725 26.2225 32.6108V33.0329L25.8529 32.8206C25.6472 32.7014 25.3817 32.7713 25.2619 32.9785C25.1422 33.1858 25.2125 33.4474 25.4207 33.5665L25.7904 33.7789L25.4207 33.9913C25.2125 34.1104 25.1422 34.3746 25.2619 34.5792C25.3817 34.7864 25.6472 34.8563 25.8529 34.7372L26.2225 34.5248V34.9496C26.2225 35.1879 26.4178 35.3821 26.6573 35.3821C26.8968 35.3821 27.092 35.1879 27.092 34.9496V34.5248L27.4617 34.7372C27.6699 34.8563 27.9328 34.7864 28.0526 34.5792C28.1723 34.3746 28.1021 34.1104 27.8938 33.9913Z" fill="white"/>
<path d="M33.2693 33.9913L32.8996 33.7789L33.2693 33.5665C33.4775 33.4474 33.5478 33.1832 33.4281 32.9785C33.3083 32.7713 33.0428 32.7014 32.8371 32.8206L32.4675 33.0329V32.6108C32.4675 32.3725 32.2723 32.1782 32.0328 32.1782C31.7933 32.1782 31.598 32.3725 31.598 32.6108V33.0329L31.2284 32.8206C31.0227 32.7014 30.7572 32.7713 30.6374 32.9785C30.5177 33.1858 30.5906 33.4474 30.7962 33.5665L31.1659 33.7789L30.7962 33.9913C30.588 34.1104 30.5177 34.3746 30.6374 34.5792C30.7572 34.7864 31.0227 34.8563 31.2284 34.7372L31.598 34.5248V34.9496C31.598 35.1879 31.7933 35.3821 32.0328 35.3821C32.2723 35.3821 32.4675 35.1879 32.4675 34.9496V34.5248L32.8345 34.7372C33.0428 34.8563 33.3083 34.7864 33.4255 34.5792C33.5478 34.3746 33.4775 34.1104 33.2693 33.9913Z" fill="white"/>
<g clip-path="url(#clip0_385_13467)">
<circle cx="38.768" cy="21.538" r="4.42623" fill="white"/>
<path d="M37.5739 21.5378L35.8859 23.2258L35.8849 23.2268C35.728 23.3856 35.64 23.5998 35.64 23.823C35.64 24.0462 35.728 24.2604 35.8849 24.4191L35.8859 24.4201C36.0543 24.5885 36.2696 24.6678 36.483 24.6678C36.6965 24.6678 36.9118 24.5885 37.0802 24.4201L38.7682 22.7321L40.4563 24.4201C40.6246 24.5885 40.84 24.6678 41.0534 24.6678C41.2669 24.6678 41.4822 24.5885 41.6506 24.4201C41.9782 24.0925 41.9782 23.5534 41.6506 23.2258L39.9625 21.5378L41.6506 19.8497C41.9782 19.5221 41.9782 18.983 41.6506 18.6554C41.323 18.3278 40.7839 18.3278 40.4563 18.6554L38.7682 20.3435L37.0802 18.6554C36.7526 18.3278 36.2135 18.3278 35.8859 18.6554L35.8849 18.6564C35.728 18.8152 35.64 19.0294 35.64 19.2526C35.64 19.4758 35.728 19.69 35.8849 19.8487L35.8849 19.8487L35.8859 19.8497L37.5739 21.5378ZM30.9326 21.5378C30.9326 17.2206 34.4511 13.7021 38.7682 13.7021C43.0854 13.7021 46.6039 17.2206 46.6039 21.5378C46.6039 25.8549 43.0854 29.3734 38.7682 29.3734C34.4511 29.3734 30.9326 25.8549 30.9326 21.5378Z" fill="#FF513C" stroke="#FCA89E" stroke-width="0.478511"/>
</g>
<defs>
<clipPath id="clip0_385_13467">
<rect width="19.3797" height="19.3797" fill="white" transform="translate(29.0786 11.8481)"/>
</clipPath>
</defs>
</svg>
