<svg width="25" height="24" viewBox="0 0 25 24" fill="none" xmlns="http://www.w3.org/2000/svg">
<path d="M18.0549 6C17.4449 6 16.8849 5.65 16.6049 5.11L15.8849 3.66C15.4249 2.75 14.2249 2 13.2049 2H10.9149C9.88486 2 8.68485 2.75 8.22485 3.66L7.50485 5.11C7.22485 5.65 6.66486 6 6.05486 6C3.88486 6 2.16486 7.83 2.30486 9.99L2.82486 18.25C2.94486 20.31 4.05486 22 6.81486 22H17.2949C20.0549 22 21.1549 20.31 21.2849 18.25L21.8049 9.99C21.9449 7.83 20.2249 6 18.0549 6ZM10.5549 7.25H13.5549C13.9649 7.25 14.3049 7.59 14.3049 8C14.3049 8.41 13.9649 8.75 13.5549 8.75H10.5549C10.1449 8.75 9.80485 8.41 9.80485 8C9.80485 7.59 10.1449 7.25 10.5549 7.25ZM12.0549 18.12C10.1949 18.12 8.67485 16.61 8.67485 14.74C8.67485 12.87 10.1849 11.36 12.0549 11.36C13.9249 11.36 15.4349 12.87 15.4349 14.74C15.4349 16.61 13.9149 18.12 12.0549 18.12Z" fill="#474643"/>
</svg>
