<svg width="16" height="17" viewBox="0 0 16 17" fill="none" xmlns="http://www.w3.org/2000/svg">
<path d="M7.9987 1.8335C4.32536 1.8335 1.33203 4.82683 1.33203 8.50016C1.33203 12.1735 4.32536 15.1668 7.9987 15.1668C11.672 15.1668 14.6654 12.1735 14.6654 8.50016C14.6654 4.82683 11.672 1.8335 7.9987 1.8335ZM10.8987 10.8802C10.8653 10.937 10.821 10.9866 10.7683 11.0261C10.7156 11.0657 10.6555 11.0943 10.5916 11.1104C10.5277 11.1266 10.4613 11.1298 10.3961 11.1201C10.3309 11.1103 10.2684 11.0877 10.212 11.0535L8.14536 9.82016C7.63203 9.5135 7.25203 8.84016 7.25203 8.24683V5.5135C7.25203 5.24016 7.4787 5.0135 7.75203 5.0135C8.02536 5.0135 8.25203 5.24016 8.25203 5.5135V8.24683C8.25203 8.48683 8.45203 8.84016 8.6587 8.96016L10.7254 10.1935C10.9654 10.3335 11.0454 10.6402 10.8987 10.8802Z" fill="#5A5C60"/>
</svg>
