<svg width="40" height="40" viewBox="0 0 40 40" fill="none" xmlns="http://www.w3.org/2000/svg">
<g clip-path="url(#clip0_481_15675)">
<path d="M40 0H0V40H40V0Z" fill="white"/>
<path d="M26.7769 14.4637L39.995 1.77732V0H39.0892L24.0117 14.4637H26.7769Z" fill="#BD0034"/>
<path d="M26.1602 26.3347L39.9981 39.6136V36.9578L28.9254 26.3347H26.1602Z" fill="#BD0034"/>
<path d="M0 3.0464L11.8355 14.4662H14.6126L0 0.390625V3.0464Z" fill="#BD0034"/>
<path d="M13.9809 26.3347L0 39.7566V40.0017H2.52682L16.7461 26.3347H13.9809Z" fill="#BD0034"/>
<path d="M37.2706 0H23.2539V13.4423L37.2706 0Z" fill="#1A237B"/>
<path d="M17.0821 0H3.125L17.0821 13.4423V0Z" fill="#1A237B"/>
<path d="M39.9955 14.4656V5.29297L30.4961 14.4656H39.9955Z" fill="#1A237B"/>
<path d="M39.9955 35.4052V26.3347H30.4961L39.9955 35.4052Z" fill="#1A237B"/>
<path d="M3.91797 40.0022H17.0765V27.3567L3.91797 40.0022Z" fill="#1A237B"/>
<path d="M23.2539 40.0022H36.4601L23.2539 27.3567V40.0022Z" fill="#1A237B"/>
<path d="M0 26.3347V35.8342L9.83313 26.3347H0Z" fill="#1A237B"/>
<path d="M0 14.467H9.83313L0 4.96753V14.467Z" fill="#1A237B"/>
<path d="M18.3075 0V16.8335H0V23.9632H18.3075V40H22.0262V23.9632H40V16.8335H22.0262V0H18.3075Z" fill="#BD0034"/>
</g>
<defs>
<clipPath id="clip0_481_15675">
<rect width="40" height="40" rx="20" fill="white"/>
</clipPath>
</defs>
</svg>
