<svg width="16" height="17" viewBox="0 0 16 17" fill="none" xmlns="http://www.w3.org/2000/svg">
<path d="M11.332 2.83331H4.66536C2.66536 2.83331 1.33203 3.83331 1.33203 6.16665V10.8333C1.33203 13.1666 2.66536 14.1666 4.66536 14.1666H11.332C13.332 14.1666 14.6654 13.1666 14.6654 10.8333V6.16665C14.6654 3.83331 13.332 2.83331 11.332 2.83331ZM11.6454 6.89331L9.5587 8.55998C9.1187 8.91331 8.5587 9.08665 7.9987 9.08665C7.4387 9.08665 6.87203 8.91331 6.4387 8.55998L4.35203 6.89331C4.1387 6.71998 4.10536 6.39998 4.27203 6.18665C4.44536 5.97331 4.7587 5.93331 4.97203 6.10665L7.0587 7.77331C7.56536 8.17998 8.42536 8.17998 8.93203 7.77331L11.0187 6.10665C11.232 5.93331 11.552 5.96665 11.7187 6.18665C11.892 6.39998 11.8587 6.71998 11.6454 6.89331Z" fill="#5A5C60"/>
</svg>
