<svg width="24" height="24" viewBox="0 0 24 24" fill="none" xmlns="http://www.w3.org/2000/svg">
<g clip-path="url(#clip0_385_11941)">
<mask id="mask0_385_11941" style="mask-type:luminance" maskUnits="userSpaceOnUse" x="0" y="5" width="9" height="14">
<path d="M0.755859 5.2002H8.60805V18.8002H0.755859V5.2002Z" fill="white"/>
</mask>
<g mask="url(#mask0_385_11941)">
<mask id="mask1_385_11941" style="mask-type:luminance" maskUnits="userSpaceOnUse" x="0" y="0" width="24" height="24">
<path d="M22.9639 9.90945H12.2523V14.3505H18.418C17.8432 17.1719 15.4396 18.7916 12.2523 18.7916C8.49015 18.7916 5.45952 15.7612 5.45952 11.9993C5.45952 8.23751 8.49015 5.20713 12.2523 5.20713C13.8721 5.20713 15.3351 5.78188 16.4846 6.72232L19.8288 3.37851C17.791 1.60207 15.1784 0.504883 12.2523 0.504883C5.87752 0.504883 0.756836 5.62513 0.756836 11.9993C0.756836 18.3736 5.87752 23.4938 12.2523 23.4938C18 23.4938 23.2251 19.314 23.2251 11.9993C23.2251 11.3201 23.1206 10.5886 22.9639 9.90945Z" fill="white"/>
</mask>
<g mask="url(#mask1_385_11941)">
<path d="M-0.288574 18.7915V5.20703L8.59424 11.9992L-0.288574 18.7915Z" fill="#FBBC05"/>
</g>
</g>
<mask id="mask2_385_11941" style="mask-type:luminance" maskUnits="userSpaceOnUse" x="0" y="0" width="24" height="12">
<path d="M0.755859 0.496094H23.2242V12.0001H0.755859V0.496094Z" fill="white"/>
</mask>
<g mask="url(#mask2_385_11941)">
<mask id="mask3_385_11941" style="mask-type:luminance" maskUnits="userSpaceOnUse" x="0" y="0" width="24" height="24">
<path d="M22.9639 9.90896H12.2523V14.35H18.418C17.8432 17.1714 15.4396 18.7911 12.2523 18.7911C8.49015 18.7911 5.45952 15.7607 5.45952 11.9988C5.45952 8.23702 8.49015 5.20664 12.2523 5.20664C13.8721 5.20664 15.3351 5.78139 16.4846 6.72183L19.8288 3.37802C17.791 1.60158 15.1784 0.504395 12.2523 0.504395C5.87752 0.504395 0.756836 5.62464 0.756836 11.9988C0.756836 18.3731 5.87752 23.4933 12.2523 23.4933C18 23.4933 23.2251 19.3135 23.2251 11.9988C23.2251 11.3196 23.1206 10.5881 22.9639 9.90896Z" fill="white"/>
</mask>
<g mask="url(#mask3_385_11941)">
<path d="M-0.288574 5.20672L8.59424 11.9989L12.2519 8.81185L24.7923 6.77416V-0.540527H-0.288574V5.20672Z" fill="#EA4335"/>
</g>
</g>
<mask id="mask4_385_11941" style="mask-type:luminance" maskUnits="userSpaceOnUse" x="0" y="0" width="24" height="24">
<path d="M0.755859 0.496094H23.2242V23.4934H0.755859V0.496094Z" fill="white"/>
</mask>
<g mask="url(#mask4_385_11941)">
<mask id="mask5_385_11941" style="mask-type:luminance" maskUnits="userSpaceOnUse" x="0" y="0" width="24" height="24">
<path d="M22.9639 9.90896H12.2523V14.35H18.418C17.8432 17.1714 15.4396 18.7911 12.2523 18.7911C8.49015 18.7911 5.45952 15.7607 5.45952 11.9988C5.45952 8.23702 8.49015 5.20664 12.2523 5.20664C13.8721 5.20664 15.3351 5.78139 16.4846 6.72183L19.8288 3.37802C17.791 1.60158 15.1784 0.504395 12.2523 0.504395C5.87752 0.504395 0.756836 5.62464 0.756836 11.9988C0.756836 18.3731 5.87752 23.4933 12.2523 23.4933C18 23.4933 23.2251 19.3135 23.2251 11.9988C23.2251 11.3196 23.1206 10.5881 22.9639 9.90896Z" fill="white"/>
</mask>
<g mask="url(#mask5_385_11941)">
<path d="M-0.288574 18.7912L15.387 6.77416L19.5149 7.29666L24.7923 -0.540527V24.5384H-0.288574V18.7912Z" fill="#34A853"/>
</g>
</g>
<mask id="mask6_385_11941" style="mask-type:luminance" maskUnits="userSpaceOnUse" x="6" y="5" width="18" height="19">
<path d="M6.49561 5.19971H23.2237V23.493H6.49561V5.19971Z" fill="white"/>
</mask>
<g mask="url(#mask6_385_11941)">
<mask id="mask7_385_11941" style="mask-type:luminance" maskUnits="userSpaceOnUse" x="0" y="0" width="24" height="24">
<path d="M22.9629 9.90896H12.2513V14.35H18.417C17.8422 17.1714 15.4387 18.7911 12.2513 18.7911C8.48917 18.7911 5.45855 15.7607 5.45855 11.9988C5.45855 8.23702 8.48917 5.20664 12.2513 5.20664C13.8711 5.20664 15.3342 5.78139 16.4837 6.72183L19.8278 3.37802C17.79 1.60158 15.1774 0.504395 12.2513 0.504395C5.87655 0.504395 0.755859 5.62464 0.755859 11.9988C0.755859 18.3731 5.87655 23.4933 12.2513 23.4933C17.999 23.4933 23.2242 19.3135 23.2242 11.9988C23.2242 11.3196 23.1197 10.5881 22.9629 9.90896Z" fill="white"/>
</mask>
<g mask="url(#mask7_385_11941)">
<path d="M24.792 24.5382L8.59397 11.9987L6.50391 10.4314L24.792 5.20654V24.5382Z" fill="#4285F4"/>
</g>
</g>
</g>
<defs>
<clipPath id="clip0_385_11941">
<rect width="24" height="24" fill="white"/>
</clipPath>
</defs>
</svg>
