<svg width="17" height="16" viewBox="0 0 17 16" fill="none" xmlns="http://www.w3.org/2000/svg">
<path d="M8.50065 14.4333C8.29398 14.4333 8.09398 14.4066 7.92732 14.3467C5.38065 13.4733 1.33398 10.3733 1.33398 5.79332C1.33398 3.45998 3.22065 1.56665 5.54065 1.56665C6.66732 1.56665 7.72065 2.00665 8.50065 2.79332C9.28065 2.00665 10.334 1.56665 11.4607 1.56665C13.7807 1.56665 15.6673 3.46665 15.6673 5.79332C15.6673 10.38 11.6207 13.4733 9.07398 14.3467C8.90732 14.4066 8.70732 14.4333 8.50065 14.4333ZM5.54065 2.56665C3.77398 2.56665 2.33398 4.01332 2.33398 5.79332C2.33398 10.3466 6.71398 12.88 8.25398 13.4066C8.37398 13.4466 8.63398 13.4466 8.75398 13.4066C10.2873 12.88 14.674 10.3533 14.674 5.79332C14.674 4.01332 13.234 2.56665 11.4673 2.56665C10.454 2.56665 9.51398 3.03998 8.90732 3.85998C8.72065 4.11332 8.29398 4.11332 8.10732 3.85998C7.48732 3.03332 6.55398 2.56665 5.54065 2.56665Z" fill="#8C8984"/>
</svg>
