<svg width="24" height="24" viewBox="0 0 24 24" fill="none" xmlns="http://www.w3.org/2000/svg">
<g clip-path="url(#clip0_481_14207)">
<path d="M7.2 2H9.8C13 2 15 4 15 7.2V11.25H8.75C8.34 11.25 8 11.59 8 12C8 12.41 8.34 12.75 8.75 12.75H15V16.8C15 20 13 22 9.8 22H7.21C4.01 22 2.01 20 2.01 16.8V7.2C2 4 4 2 7.2 2Z" fill="url(#paint0_linear_481_14207)"/>
<path d="M19.4386 11.25L17.3686 9.18003C17.2186 9.03003 17.1486 8.84003 17.1486 8.65003C17.1486 8.46003 17.2186 8.26003 17.3686 8.12003C17.6586 7.83003 18.1386 7.83003 18.4286 8.12003L21.7786 11.47C22.0686 11.76 22.0686 12.24 21.7786 12.53L18.4286 15.88C18.1386 16.17 17.6586 16.17 17.3686 15.88C17.0786 15.59 17.0786 15.11 17.3686 14.82L19.4386 12.75H14.9986V11.25H19.4386Z" fill="url(#paint1_linear_481_14207)"/>
</g>
<defs>
<linearGradient id="paint0_linear_481_14207" x1="8.50381" y1="2" x2="8.50381" y2="22" gradientUnits="userSpaceOnUse">
<stop stop-color="#FFBEFF"/>
<stop offset="1" stop-color="#F01799"/>
</linearGradient>
<linearGradient id="paint1_linear_481_14207" x1="18.4967" y1="7.90253" x2="18.4967" y2="16.0975" gradientUnits="userSpaceOnUse">
<stop stop-color="#FFBEFF"/>
<stop offset="1" stop-color="#F01799"/>
</linearGradient>
<clipPath id="clip0_481_14207">
<rect width="24" height="24" fill="white" transform="matrix(-1 0 0 1 24 0)"/>
</clipPath>
</defs>
</svg>
