<svg width="16" height="16" viewBox="0 0 16 16" fill="none" xmlns="http://www.w3.org/2000/svg">
<path d="M5.91309 4.54639H4.99512L5.24707 3.94287L5.24609 3.94189L5.26758 3.89795L5.27539 3.87939L5.28223 3.86084L5.32227 3.75439C5.32514 3.74739 5.32793 3.74117 5.33008 3.73584C5.33291 3.72882 5.33486 3.72528 5.33691 3.72021V3.71826L5.3457 3.70459L5.36328 3.66357C5.7336 2.80489 6.075 2.37452 6.4043 2.17334C6.56394 2.07588 6.75434 2.01435 7.00293 2.00635L5.91309 4.54639Z" fill="#6A6C70" stroke="#6A6C70" stroke-width="1.33333"/>
<path d="M10.1104 3.02759L10.1133 3.02954C10.8922 3.35253 11.3422 3.65216 11.5928 3.94946L11.7139 4.12231L11.7217 4.13403C11.758 4.19058 11.7683 4.21959 11.7715 4.23169L11.7852 4.28247L11.8066 4.33032C11.8154 4.35004 11.8189 4.36176 11.8213 4.36841C11.8233 4.37416 11.824 4.37701 11.8242 4.37817L11.8291 4.39966L11.8359 4.42114C11.8512 4.47288 11.8632 4.5283 11.8721 4.58716C11.6686 4.56177 11.4626 4.54614 11.2549 4.54614H8.09473L8.95605 2.54126L10.1104 3.02759Z" fill="#6A6C70" stroke="#6A6C70" stroke-width="1.33333"/>
<path d="M8.34766 11.7734H8.51432C8.71432 11.7734 8.88099 11.5934 8.88099 11.3734C8.88099 11.0934 8.80099 11.0534 8.62766 10.9867L8.34766 10.8867V11.7734Z" fill="#6A6C70"/>
<path d="M12.1922 6.34671C11.8922 6.26005 11.5789 6.21338 11.2522 6.21338H4.74552C4.29219 6.21338 3.86552 6.30005 3.46552 6.47338C2.30552 6.97338 1.49219 8.12671 1.49219 9.46671V10.7667C1.49219 10.9267 1.50552 11.08 1.52552 11.24C1.67219 13.36 2.80552 14.4934 4.92552 14.6334C5.07885 14.6534 5.23219 14.6667 5.39885 14.6667H10.5989C13.0655 14.6667 14.3655 13.4934 14.4922 11.16C14.4989 11.0334 14.5055 10.9 14.5055 10.7667V9.46671C14.5055 7.99338 13.5255 6.75338 12.1922 6.34671ZM8.85219 10.3334C9.15885 10.44 9.57219 10.6667 9.57219 11.3734C9.57219 11.98 9.09886 12.4667 8.51219 12.4667H8.34552V12.6134C8.34552 12.8067 8.19219 12.96 7.99885 12.96C7.80552 12.96 7.65219 12.8067 7.65219 12.6134V12.4667H7.59219C6.95219 12.4667 6.42552 11.9267 6.42552 11.26C6.42552 11.0667 6.57885 10.9134 6.77219 10.9134C6.96552 10.9134 7.11885 11.0667 7.11885 11.26C7.11885 11.54 7.33219 11.7734 7.59219 11.7734H7.65219V10.6467L7.14552 10.4667C6.83885 10.36 6.42552 10.1334 6.42552 9.42671C6.42552 8.82005 6.89885 8.33338 7.48552 8.33338H7.65219V8.18671C7.65219 7.99338 7.80552 7.84005 7.99885 7.84005C8.19219 7.84005 8.34552 7.99338 8.34552 8.18671V8.33338H8.40552C9.04552 8.33338 9.57219 8.87338 9.57219 9.54005C9.57219 9.73338 9.41885 9.88671 9.22552 9.88671C9.03219 9.88671 8.87885 9.73338 8.87885 9.54005C8.87885 9.26005 8.66552 9.02671 8.40552 9.02671H8.34552V10.1534L8.85219 10.3334Z" fill="#6A6C70"/>
<path d="M7.12109 9.42661C7.12109 9.70661 7.20109 9.74661 7.37443 9.81328L7.65443 9.91328V9.02661H7.48776C7.28109 9.02661 7.12109 9.20661 7.12109 9.42661Z" fill="#6A6C70"/>
</svg>
