<svg width="25" height="25" viewBox="0 0 25 25" fill="none" xmlns="http://www.w3.org/2000/svg">
<path d="M5.51345 11.5469C5.17035 11.0518 5.18849 10.3903 5.39326 9.84525C5.64579 9.17311 6.07231 8.59711 6.45041 7.9936C6.459 7.97988 6.47292 7.9722 6.4891 7.9722C6.50527 7.9722 6.51915 7.97988 6.52779 7.9936C6.91414 8.61055 7.33635 9.17647 7.59247 9.87069C7.79177 10.4108 7.79931 11.0607 7.45975 11.548C7.23099 11.8763 6.89004 12.0499 6.49049 12.0499C6.08772 12.05 5.74347 11.8789 5.51345 11.5469ZM8.83352 17.6363C8.81657 17.6436 8.80611 17.6593 8.80591 17.6777C8.80217 18.0385 8.79204 18.3968 8.78191 18.7247C8.76257 19.4333 8.66043 19.9499 8.4644 20.3501C8.17731 20.9316 7.6831 21.2386 7.03155 21.2386C5.95217 21.2386 5.36686 20.4489 5.28675 18.8907C5.28401 18.8131 5.28123 18.7313 5.27844 18.6475C4.82542 19.8715 4.66376 21.6787 4.55873 23.0959C4.55777 23.109 4.56185 23.1207 4.57083 23.1303C4.57975 23.1399 4.59108 23.1449 4.60423 23.1449H9.13102C9.15612 23.1449 9.17662 23.1244 9.17662 23.0992V18.4795C9.17662 18.1007 9.08384 17.8319 8.88252 17.6448C8.86908 17.6322 8.85051 17.629 8.83352 17.6363ZM7.08958 14.0868C6.17854 14.0868 5.98251 15.5275 5.94108 15.9692C5.87484 16.735 5.8831 18.0022 5.92726 18.8583C6.00454 20.4017 6.55947 20.5997 7.03155 20.5997C7.52571 20.5997 8.09446 20.3844 8.14414 18.7059C8.17179 17.8106 8.19113 16.6871 8.11932 15.9368C7.94264 14.0868 7.30212 14.0868 7.08958 14.0868ZM10.8497 12.4463C10.7835 13.2119 10.7917 14.4792 10.8359 15.335C10.9132 16.8787 11.4681 17.0767 11.9402 17.0767C12.4343 17.0767 13.0031 16.8614 13.0528 15.1824C13.0804 14.2876 13.0997 13.1641 13.0279 12.4133C12.8539 10.5633 12.2107 10.5633 11.9981 10.5633C11.0872 10.5634 10.8911 12.0046 10.8497 12.4463ZM9.88726 7.70973C10.3403 7.8857 10.6968 8.25568 10.8574 8.71303C10.864 8.73165 10.8807 8.74356 10.9004 8.74356C10.9202 8.74356 10.937 8.7316 10.9435 8.71298C11.1034 8.25549 11.4612 7.8856 11.9143 7.70973C11.9322 7.70277 11.9433 7.6864 11.9433 7.6672C11.9433 7.648 11.9322 7.63164 11.9143 7.62468C11.4612 7.44885 11.1035 7.07868 10.9435 6.62071C10.937 6.60208 10.9203 6.59018 10.9005 6.59013C10.8808 6.59013 10.864 6.60204 10.8574 6.62066C10.6969 7.0782 10.3404 7.44876 9.88726 7.62468C9.86936 7.63164 9.85817 7.648 9.85817 7.66716C9.85817 7.68645 9.86936 7.70277 9.88726 7.70973ZM19.0244 16.1504C18.9499 15.7514 18.8515 15.4083 18.7276 15.1214C18.7189 15.1014 18.6979 15.0905 18.6766 15.0948C18.6552 15.0992 18.6402 15.1174 18.6401 15.1393C18.6376 15.5692 18.6277 16.0026 18.6158 16.3933C18.5965 17.1019 18.4943 17.6185 18.2983 18.0186C18.0112 18.6 17.5171 18.9077 16.8655 18.9077C15.786 18.9077 15.2008 18.1172 15.1207 16.5593C15.0951 16.0295 15.0814 15.3446 15.0905 14.71C15.0908 14.6891 15.0776 14.6713 15.0576 14.6655C15.0376 14.6597 15.017 14.6676 15.006 14.6853C14.8748 14.8981 14.8004 15.1454 14.8004 15.4025V23.0992C14.8004 23.1244 14.8209 23.1449 14.846 23.1449H19.2956C19.3083 23.1449 19.3192 23.1403 19.3281 23.1313C19.337 23.1222 19.3414 23.1113 19.3412 23.0986C19.3391 22.935 19.3391 22.7689 19.3391 22.6009C19.3336 20.3359 19.328 17.7687 19.0244 16.1504ZM19.6555 8.3297C18.8391 8.056 18.1973 7.3901 17.9553 6.56589C17.9495 6.54616 17.9322 6.53311 17.9116 6.53311C17.891 6.53311 17.8736 6.54612 17.8678 6.56584C17.6251 7.39024 16.9859 8.05586 16.1686 8.32965C16.1497 8.33599 16.1374 8.35293 16.1375 8.3729C16.1375 8.39287 16.1497 8.40981 16.1686 8.41615C16.9858 8.68994 17.625 9.35594 17.8678 10.1805C17.8736 10.2002 17.891 10.2133 17.9116 10.2132C17.9322 10.2132 17.9496 10.2002 17.9553 10.1804C18.1972 9.35642 18.8387 8.69037 19.6555 8.41615C19.6744 8.40981 19.6866 8.39282 19.6866 8.3729C19.6866 8.35298 19.6744 8.33604 19.6555 8.3297ZM13.7466 13.5308C13.728 13.5375 13.7162 13.5543 13.7163 13.574C13.719 14.1213 13.706 14.697 13.6906 15.2012C13.6712 15.9099 13.5691 16.4264 13.3731 16.8268C13.086 17.408 12.5918 17.7157 11.9403 17.7157C10.8608 17.7157 10.2755 16.9253 10.1955 15.3669C10.1725 14.8888 10.159 14.2841 10.1635 13.704C10.1637 13.6834 10.1508 13.666 10.1312 13.66C10.1116 13.654 10.0912 13.6613 10.0799 13.6785C9.90953 13.9369 9.81449 14.2424 9.81449 14.561V23.0992C9.81449 23.1244 9.83499 23.1449 9.86009 23.1449H14.1143C14.1394 23.1449 14.1599 23.1244 14.1599 23.0992V14.561C14.1599 14.1865 14.0264 13.8287 13.7974 13.5451C13.785 13.5298 13.7652 13.5242 13.7466 13.5308ZM15.7612 16.5269C15.8384 18.0707 16.3906 18.2687 16.8655 18.2687C17.3569 18.2687 17.9284 18.0533 17.978 16.3745C18.0029 15.4796 18.025 14.3561 17.9532 13.6054C17.7765 11.7553 17.136 11.7553 16.9234 11.7553C16.0123 11.7553 15.8163 13.1964 15.7749 13.6382C15.7087 14.404 15.717 15.6712 15.7612 16.5269ZM16.1166 3.60938C16.1354 3.60295 16.1475 3.58605 16.1475 3.56623C16.1475 3.54636 16.1354 3.52951 16.1166 3.52308C15.3626 3.26517 14.7727 2.64972 14.5446 1.88752C14.5387 1.86789 14.5214 1.85498 14.5009 1.85498C14.4804 1.85498 14.4631 1.86794 14.4572 1.88752C14.2294 2.64904 13.6397 3.26488 12.8852 3.52303C12.8664 3.52946 12.8543 3.54631 12.8543 3.56618C12.8543 3.58605 12.8664 3.6029 12.8852 3.60933C13.6394 3.86709 14.2292 4.48308 14.4571 5.24479C14.4631 5.26437 14.4804 5.27733 14.5009 5.27733C14.5213 5.27733 14.5387 5.26442 14.5446 5.24479C14.7724 4.48327 15.3621 3.86748 16.1166 3.60938Z" fill="url(#paint0_linear_886_5892)"/>
<defs>
<linearGradient id="paint0_linear_886_5892" x1="12.124" y1="1.85498" x2="12.124" y2="23.1449" gradientUnits="userSpaceOnUse">
<stop stop-color="#FFBEFF"/>
<stop offset="1" stop-color="#F01799"/>
</linearGradient>
</defs>
</svg>
