<svg width="25" height="25" viewBox="0 0 25 25" fill="none" xmlns="http://www.w3.org/2000/svg">
<path d="M5.5154 11.5468C5.1723 11.0517 5.19044 10.3902 5.39521 9.84513C5.64774 9.17299 6.07427 8.59699 6.45236 7.99348C6.46096 7.97975 6.47488 7.97207 6.49105 7.97207C6.50723 7.97207 6.5211 7.97975 6.52974 7.99348C6.91609 8.61043 7.3383 9.17635 7.59443 9.87057C7.79372 10.4107 7.80126 11.0606 7.46171 11.5479C7.23294 11.8762 6.892 12.0498 6.49244 12.0498C6.08968 12.0499 5.74542 11.8787 5.5154 11.5468ZM8.83547 17.6362C8.81852 17.6435 8.80806 17.6592 8.80787 17.6776C8.80412 18.0383 8.794 18.3967 8.78387 18.7246C8.76452 19.4332 8.66238 19.9498 8.46635 20.35C8.17926 20.9314 7.68505 21.2385 7.0335 21.2385C5.95412 21.2385 5.36881 20.4488 5.2887 18.8905C5.28596 18.813 5.28318 18.7312 5.2804 18.6474C4.82737 19.8714 4.66571 21.6786 4.56068 23.0958C4.55972 23.1089 4.5638 23.1205 4.57278 23.1302C4.58171 23.1398 4.59304 23.1447 4.60619 23.1447H9.13297C9.15808 23.1447 9.17857 23.1242 9.17857 23.0991V18.4794C9.17857 18.1006 9.08579 17.8318 8.88448 17.6447C8.87104 17.6321 8.85246 17.6289 8.83547 17.6362ZM7.09153 14.0867C6.18049 14.0867 5.98446 15.5274 5.94304 15.9691C5.8768 16.7349 5.88505 18.0021 5.92921 18.8582C6.00649 20.4016 6.56142 20.5996 7.0335 20.5996C7.52766 20.5996 8.09641 20.3842 8.14609 18.7058C8.17374 17.8105 8.19308 16.687 8.12128 15.9367C7.94459 14.0867 7.30408 14.0867 7.09153 14.0867ZM10.8517 12.4462C10.7854 13.2118 10.7937 14.4791 10.8378 15.3348C10.9151 16.8786 11.47 17.0766 11.9421 17.0766C12.4363 17.0766 13.005 16.8612 13.0547 15.1823C13.0823 14.2874 13.1017 13.1639 13.0299 12.4132C12.8559 10.5632 12.2127 10.5632 12.0001 10.5632C11.0891 10.5633 10.8931 12.0045 10.8517 12.4462ZM9.88921 7.70961C10.3422 7.88558 10.6988 8.25556 10.8593 8.71291C10.8659 8.73153 10.8827 8.74343 10.9024 8.74343C10.9221 8.74343 10.9389 8.73148 10.9455 8.71286C11.1053 8.25537 11.4631 7.88548 11.9162 7.70961C11.9341 7.70265 11.9453 7.68628 11.9453 7.66708C11.9453 7.64788 11.9341 7.63151 11.9162 7.62455C11.4632 7.44873 11.1055 7.07855 10.9455 6.62059C10.939 6.60196 10.9222 6.59006 10.9024 6.59001C10.8827 6.59001 10.8659 6.60191 10.8594 6.62054C10.6989 7.07807 10.3424 7.44863 9.88921 7.62455C9.87131 7.63151 9.86012 7.64788 9.86012 7.66703C9.86012 7.68633 9.87131 7.70265 9.88921 7.70961ZM19.0263 16.1503C18.9519 15.7512 18.8535 15.4082 18.7295 15.1213C18.7209 15.1013 18.6999 15.0903 18.6785 15.0947C18.6571 15.0991 18.6422 15.1173 18.642 15.1391C18.6396 15.569 18.6297 16.0025 18.6178 16.3931C18.5984 17.1018 18.4963 17.6183 18.3003 18.0185C18.0132 18.5999 17.519 18.9076 16.8675 18.9076C15.788 18.9076 15.2027 18.1171 15.1227 16.5592C15.0971 16.0294 15.0833 15.3445 15.0925 14.7098C15.0927 14.689 15.0796 14.6712 15.0596 14.6654C15.0396 14.6596 15.0189 14.6675 15.008 14.6852C14.8767 14.8979 14.8024 15.1452 14.8024 15.4023V23.0991C14.8024 23.1242 14.8229 23.1447 14.848 23.1447H19.2976C19.3103 23.1447 19.3212 23.1402 19.33 23.1311C19.339 23.1221 19.3433 23.1112 19.3432 23.0985C19.3411 22.9349 19.3411 22.7688 19.3411 22.6007C19.3356 20.3358 19.33 17.7685 19.0263 16.1503ZM19.6575 8.32958C18.841 8.05588 18.1992 7.38998 17.9573 6.56577C17.9515 6.54604 17.9341 6.53299 17.9135 6.53299C17.8929 6.53299 17.8755 6.54599 17.8697 6.56572C17.627 7.39012 16.9879 8.05574 16.1705 8.32953C16.1516 8.33587 16.1394 8.35281 16.1394 8.37278C16.1394 8.39275 16.1516 8.40969 16.1705 8.41603C16.9877 8.68982 17.627 9.35582 17.8697 10.1804C17.8755 10.2001 17.893 10.2131 17.9136 10.2131C17.9341 10.2131 17.9515 10.2 17.9573 10.1803C18.1992 9.3563 18.8407 8.69025 19.6575 8.41603C19.6764 8.40969 19.6886 8.3927 19.6886 8.37278C19.6885 8.35286 19.6763 8.33591 19.6575 8.32958ZM13.7486 13.5307C13.73 13.5373 13.7181 13.5542 13.7183 13.5739C13.721 14.1212 13.7079 14.6969 13.6925 15.2011C13.6732 15.9097 13.5711 16.4263 13.3751 16.8266C13.0879 17.4079 12.5938 17.7156 11.9422 17.7156C10.8627 17.7156 10.2775 16.9252 10.1974 15.3668C10.1744 14.8886 10.1609 14.284 10.1655 13.7038C10.1657 13.6833 10.1528 13.6658 10.1332 13.6598C10.1136 13.6538 10.0931 13.6612 10.0818 13.6784C9.91148 13.9367 9.81644 14.2423 9.81644 14.5608V23.0991C9.81644 23.1242 9.83694 23.1447 9.86204 23.1447H14.1162C14.1414 23.1447 14.1619 23.1242 14.1619 23.0991V14.5608C14.1619 14.1864 14.0284 13.8286 13.7994 13.545C13.787 13.5297 13.7672 13.5241 13.7486 13.5307ZM15.7631 16.5267C15.8404 18.0706 16.3926 18.2686 16.8674 18.2686C17.3588 18.2686 17.9303 18.0532 17.98 16.3743C18.0049 15.4795 18.0269 14.356 17.9551 13.6053C17.7784 11.7552 17.1379 11.7552 16.9253 11.7552C16.0143 11.7552 15.8183 13.1963 15.7768 13.638C15.7107 14.4038 15.7189 15.6711 15.7631 16.5267ZM16.1186 3.60926C16.1374 3.60283 16.1494 3.58593 16.1494 3.56611C16.1494 3.54623 16.1373 3.52939 16.1186 3.52295C15.3646 3.26505 14.7747 2.64959 14.5466 1.8874C14.5407 1.86777 14.5233 1.85486 14.5028 1.85486C14.4823 1.85486 14.465 1.86782 14.4591 1.8874C14.2314 2.64892 13.6417 3.26476 12.8871 3.52291C12.8683 3.52934 12.8563 3.54619 12.8563 3.56606C12.8563 3.58593 12.8683 3.60278 12.8871 3.60921C13.6413 3.86697 14.2312 4.48295 14.4591 5.24467C14.465 5.26425 14.4823 5.27721 14.5028 5.27721C14.5233 5.27721 14.5407 5.2643 14.5465 5.24467C14.7743 4.48315 15.364 3.86735 16.1186 3.60926Z" fill="#6A6C70"/>
</svg>
